<?xml version="1.0" encoding="utf-8"?>
<svg xmlns="http://www.w3.org/2000/svg" viewBox="0 0 51.68 34.79"><defs><style>.a{stroke:#fff;stroke-miterlimit:10;}</style></defs><title>Asset 8</title><path class="a" d="M50,23.72h0L43.54,4.35A5.62,5.62,0,0,0,38.2.5H13.48A5.64,5.64,0,0,0,8.13,4.35L1.68,23.72h0A6.69,6.69,0,0,0,.5,27.53a6.76,6.76,0,0,0,6.76,6.76H44.42A6.76,6.76,0,0,0,50,23.72ZM11.34,5.42a2.25,2.25,0,0,1,2.14-1.54H38.2a2.26,2.26,0,0,1,2.14,1.54l5.14,15.44h0a6.15,6.15,0,0,0-1.06-.09H7.26a6.15,6.15,0,0,0-1.06.09ZM44.42,30.91H7.26a3.38,3.38,0,0,1-3.37-3.14h0a1.93,1.93,0,0,1,0-.24,3.32,3.32,0,0,1,.83-2.21h0a3.35,3.35,0,0,1,2.55-1.17H44.42a3.39,3.39,0,0,1,3.38,3.38,1.93,1.93,0,0,1,0,.24A3.38,3.38,0,0,1,44.42,30.91Z"/><path class="a" d="M31.75,25.84H19.93a1.69,1.69,0,0,0,0,3.38H31.75a1.69,1.69,0,0,0,0-3.38Z"/><path class="a" d="M25.84,19.16c6.9,0,12.1-2.92,12.1-6.8s-5.2-6.79-12.1-6.79S13.73,8.49,13.73,12.36,18.94,19.16,25.84,19.16Z"/></svg>