<?xml version="1.0" encoding="UTF-8"?><svg id="a" xmlns="http://www.w3.org/2000/svg" width="212" height="100" viewBox="0 0 212 100"><g id="ko"><g id="kz"><rect id="la" width="212" height="100" style="fill:none;"/><g><path d="M201.15,49.64c4.86-3.75,7-7.67,6.66-12.6-.33-6.95-6.1-12.4-13.07-12.33h-19.23v42.35h7.64v-17.43h9.12l10.8,17.43h8.92l-10.85-17.43Zm-.76-12.6c.13,2.72-1.98,5.03-4.7,5.15,0,0,0,0-.01,0-.31,.04-.63,.04-.94,0h-11.61v-10.08h11.61c2.79-.3,5.3,1.7,5.62,4.49,0,.15,.02,.3,.02,.44h0Zm-83.12,14.2l9.86,15.8h9.1l-14-22.43-4.95,6.63Zm16.17-26.52h-9.71l-19.99,26.75V24.72h-7.59V63.3c-.03,1.8,1.24,3.36,3.01,3.7,1.39,.24,2.8-.3,3.67-1.41l30.62-40.87Zm16.94,24.92h15.09v-7.4h-15.09v7.4Z" style="fill:#00a7e1;"/><path d="M169.45,24.72h-29.98V63.3c-.05,2.03,1.55,3.72,3.57,3.77,.03,0,.07,0,.1,0h26.3v-7.4h-22.19v-27.56h22.19v-7.4Zm-88.74,0v26.75l-20.02-26.75h-9.86v42.33h7.67V34.85l23.1,30.74c.87,1.11,2.28,1.65,3.67,1.41,1.77-.34,3.04-1.9,3.01-3.7V24.72h-7.57Zm-60.99,2.29L0,67.07H8.58l14.79-30.03,14.79,30.07h8.5L27.12,27.19c-.37-.72-.91-1.33-1.58-1.77-.67-.42-1.43-.66-2.22-.69-.76,0-1.5,.22-2.14,.62-.64,.4-1.15,.98-1.45,1.68h0Z" style="fill:#00a7e1;"/><path d="M30.32,61.08h-5.13l1.01-10.87-11.09,14.2h5.18l-.99,10.87,10.92-14.37,.1,.17Z" style="fill:#00a7e1;"/></g></g></g></svg>