<svg xmlns="http://www.w3.org/2000/svg" width="212" height="100" viewBox="0 0 212 100"><title>logo_acer</title><rect width="212" height="100" style="fill:none"/><path d="M154.69,39.45q-1.53,5-14.2,6.81l-20.17,2.87.5-1.66q2.5-8.17,7.12-11.14t15-3q13.65,0,11.77,6.08M42.75,65.66a97.8,97.8,0,0,1-14.1.77q-16,0-13.95-6.47,1.44-4.64,8.39-5.58l24.22-3.26ZM211.62,26.78c-.73-1.07-1.6-1.8-5.21-2.07-.95-.08-4.08-.18-9.34-.18-13.84,0-23.24,4.22-28,12.53q2-12.55-24.41-12.56-31,0-38.7,25-2.86,9.3-.6,15.27l-4.88.33c-3.81.29-8.82.55-11.89.55q-11.34,0-14.08-3.82c-1.62-2.28-1.46-6.52.44-12.72,3.15-10.24,11-14.86,23.45-14.86,6.47,0,12.78.68,12.78.68a1.41,1.41,0,0,0,1.15-1.71l-.12-1-.45-3.44q-.42-3.41-5-4c-2.8-.19-4.89-.32-8-.32h-.17q-24.47,0-34.11,16.12Q68,24.5,41.76,24.5a182.89,182.89,0,0,0-20.9.83c-3.24.41-5.21,1.76-5.93,4l-1.38,4.42c-.25.82.13,1.22,1.17,1.22h0c.77-.09,3.73-.39,8.78-.79,6.68-.53,11.63-.8,14.89-.8q14.42,0,12.17,7.24a2.79,2.79,0,0,1-2.19,2Q34.75,44.91,26.74,45.9,4.2,48.78.68,60q-4.8,15.42,24.11,15.43A148.72,148.72,0,0,0,49,73.76c3.76-.63,5.66-1.59,6.42-4L59,58.27c-.37,11.45,7.64,17.23,24,17.23,7.1,0,13.83-.24,17-.79,3.37-.59,5-1.32,5.72-3.87l.72-3.61q5.25,8.19,23,8.2,18.74,0,21.85-1.05c1.74-.55,2.82-1.45,3.19-2.71a3.82,3.82,0,0,0,.15-.72l1.51-4.87c.25-.84-.13-1.25-1.17-1.21l-8,.38c-5.33.29-9.52.45-12.53.45q-8.51,0-11.69-1.17c-3.16-1.22-4.66-3.64-4.52-7.3L143.62,54q17-2.19,22.78-10.52l-8.57,30A1.38,1.38,0,0,0,158,74.8a2.13,2.13,0,0,0,1.67.55h10.48a2.46,2.46,0,0,0,2.71-1.75l9.26-32.34c1.22-4.26,5.12-6.33,11.93-6.33,6.14,0,10.78,0,13.74.17H208a2.2,2.2,0,0,0,2.14-1.62L211.81,29a2.4,2.4,0,0,0-.19-2.26" style="fill:#83b81a"/></svg>