<svg xmlns="http://www.w3.org/2000/svg" viewBox="0 0 358.25 164.41"><path fill="#008fc3" d="M0 145.87L307.45.87l-78.72 163.54-16.79-60.19L0 145.87z"/><path fill="#004289" d="M48.41 0L341.9 35.32l16.35 75.67-248.34 40.33L48.41 0z"/><path d="M136.15 82.96c0 5.94.01 20.5 27.05 20.5s27.78-14.56 27.78-20.5V48.94h-14.37V79.4c0 5.2-.22 13.96-13.41 13.96s-12.68-8.77-12.68-13.96V48.94h-14.37v34.02zm66.1 19.02h14.38V80.73h26.07v-10.1h-26.07V59.04h29.32v-10.1h-43.7v53.04z" fill="#fff"/><path d="M270.15 58.6h14.17c4.08 0 8.3.59 8.3 7.5 0 7.13-5.19 7.28-9.63 7.28h-12.83V58.6h-.01zm-14.37 43.38h14.37V83.03h18.55c11.63 0 17.61-7.09 17.61-18.38 0-7.13-3.68-15.82-18.72-15.82l-31.82.1v53.05h.01z" fill-rule="evenodd" clip-rule="evenodd" fill="#fff"/></svg>